<svg id="Layer_1" data-name="Layer 1" xmlns="http://www.w3.org/2000/svg" viewBox="0 0 1105.44 1105.44"><defs><style>.cls-1{fill:#d71f27;}.cls-2{fill:#fff;}</style></defs><path class="cls-1" d="M546.26,299.07c134.31,0,243.19,108.88,243.19,243.2,0,7.22-.33,14.36-1,21.41A246.86,246.86,0,0,1,816.78,562a242,242,0,0,1,131.49,38.58V189.75A550.21,550.21,0,0,0,682,121.51c-305.26,0-552.72,247.46-552.72,552.72,0,158.57,66.78,301.54,173.75,402.33V542C303.22,407.79,412.05,299.07,546.26,299.07Z" transform="translate(-129.31 -121.51)"/><path class="cls-1" d="M1060,270.93v534.6c-.16,134.18-109,242.9-243.2,242.9S573.59,939.55,573.59,805.23c0-7.21.33-14.35.95-21.41a246.86,246.86,0,0,1-28.28,1.64,242,242,0,0,1-131.49-38.58v411.27A550.22,550.22,0,0,0,682,1227c305.26,0,552.72-247.46,552.72-552.72C1234.75,515.15,1167.54,371.77,1060,270.93Z" transform="translate(-129.31 -121.51)"/><path class="cls-2" d="M948.27,189.75V600.63a243.26,243.26,0,0,0-159.76-36.94c.61-7.06,1-14.2,1-21.42,0-134.32-108.88-243.2-243.2-243.2s-243,108.72-243.2,242.9v534.6a554.65,554.65,0,0,0,111.71,81.58V746.88a242,242,0,0,0,131.49,38.58,246.72,246.72,0,0,0,28.28-1.64c-.62,7.06-.95,14.2-.95,21.42,0,134.31,108.88,243.19,243.19,243.19s243-108.71,243.2-242.9V270.93A554.5,554.5,0,0,0,948.27,189.75Zm-402,484a131.49,131.49,0,1,1,131.5-131.49A131.49,131.49,0,0,1,546.26,673.76Zm270.52,263A131.49,131.49,0,1,1,948.27,805.23,131.49,131.49,0,0,1,816.78,936.72Z" transform="translate(-129.31 -121.51)"/><circle class="cls-1" cx="546.26" cy="542.27" r="131.49" transform="translate(-352.75 423.58) rotate(-45)"/><circle class="cls-1" cx="687.47" cy="683.73" r="131.49"/></svg>