<svg id="Layer_1" data-name="Layer 1" xmlns="http://www.w3.org/2000/svg" viewBox="0 0 663.13 223.46"><defs><style>.cls-1{fill:#d71f27;}.cls-2{fill:#fff;}</style></defs><title>PaperDeluxeLogo</title><path class="cls-1" d="M212.29,581.72a49,49,0,0,1,49,49c0,1.46-.06,2.9-.19,4.32a49.13,49.13,0,0,1,32.2,7.44V559.69a111.42,111.42,0,0,0-130,178.75V630.68A49,49,0,0,1,212.29,581.72Z" transform="translate(-128.25 -545.71)"/><path class="cls-1" d="M315.84,576.05V683.81a49,49,0,0,1-98-.06c0-1.46.07-2.9.19-4.32a49.08,49.08,0,0,1-32.2-7.45v82.9a111.42,111.42,0,0,0,130-178.83Z" transform="translate(-128.25 -545.71)"/><path class="cls-2" d="M293.32,559.69V642.5a49.13,49.13,0,0,0-32.2-7.44c.13-1.42.19-2.86.19-4.32a49,49,0,0,0-98-.06V738.44a112,112,0,0,0,22.52,16.44V672a49.08,49.08,0,0,0,32.2,7.45c-.12,1.42-.19,2.86-.19,4.32a49,49,0,0,0,98,.06V576.05A111.6,111.6,0,0,0,293.32,559.69Zm-81,97.56a26.51,26.51,0,1,1,26.51-26.51A26.5,26.5,0,0,1,212.29,657.25Zm54.53,53a26.51,26.51,0,1,1,26.5-26.5A26.5,26.5,0,0,1,266.82,710.25Z" transform="translate(-128.25 -545.71)"/><circle class="cls-1" cx="84.04" cy="85.03" r="26.5"/><circle class="cls-1" cx="138.57" cy="138.04" r="26.5"/><path class="cls-1" d="M365,653.71V614.94h16.29q13.23,0,22.14-4.77a31.66,31.66,0,0,0,13.21-12.54A34.75,34.75,0,0,0,421,580.48a35.81,35.81,0,0,0-4.46-18,30.69,30.69,0,0,0-13.37-12.31q-8.91-4.45-21.83-4.46H338.76v39.7A110.92,110.92,0,0,1,365,653.71Zm0-86.77h14.3q7.53,0,11.22,3.54t3.69,10q0,6.46-3.69,10T379.34,594H365Z" transform="translate(-128.25 -545.71)"/><path class="cls-1" d="M448,649.48a34.83,34.83,0,0,0,19,5.46A33,33,0,0,0,483,651.25a28.35,28.35,0,0,0,10.68-9.69v12.15H520V567.86H493.68V580a27.22,27.22,0,0,0-10.52-9.69,32.91,32.91,0,0,0-15.91-3.7A35.46,35.46,0,0,0,448,572a37.32,37.32,0,0,0-13.61,15.38q-5,10-5,23.23t5,23.31A37.72,37.72,0,0,0,448,649.48Zm13.6-54.31a18.47,18.47,0,0,1,26.59.08q5.44,5.68,5.45,15.54t-5.45,15.54a18.29,18.29,0,0,1-26.59-.08q-5.46-5.78-5.46-15.62T461.64,595.17Z" transform="translate(-128.25 -545.71)"/><path class="cls-1" d="M576,651.25a32.67,32.67,0,0,0,15.76,3.69A35.12,35.12,0,0,0,611,649.48a37.69,37.69,0,0,0,13.6-15.54,51.8,51.8,0,0,0,5-23.31q0-13.23-5-23.23A37.29,37.29,0,0,0,611,572a35.49,35.49,0,0,0-19.21-5.39,32.4,32.4,0,0,0-15.83,3.7A28.51,28.51,0,0,0,565.3,580V567.86H539l-.56,110.7h26.77l.06-10V641.71A28.84,28.84,0,0,0,576,651.25Zm-5.37-56a17.71,17.71,0,0,1,13.29-5.69,18,18,0,0,1,13.45,5.61q5.45,5.63,5.45,15.46t-5.53,15.62a18.37,18.37,0,0,1-26.66.08q-5.46-5.7-5.46-15.54T570.61,595.25Z" transform="translate(-128.25 -545.71)"/><path class="cls-1" d="M694.25,625.25q-3.84,8.31-13.68,8.31a15.7,15.7,0,0,1-11.14-4.23q-4.54-4.23-5.15-12.23h59.48a66.69,66.69,0,0,0,.46-7.7q0-12.92-5.46-22.61a37.51,37.51,0,0,0-15.14-14.93,49.74,49.74,0,0,0-44.72.16,37.75,37.75,0,0,0-15.29,15.38q-5.46,10-5.46,23.39t5.53,23.38a38.33,38.33,0,0,0,15.37,15.39,46,46,0,0,0,22.44,5.38,45.23,45.23,0,0,0,18.91-3.84,38.9,38.9,0,0,0,14.06-10.62,38.36,38.36,0,0,0,7.76-15.23ZM670,591.56a16.62,16.62,0,0,1,11.15-3.85,16.92,16.92,0,0,1,11.52,4,13.52,13.52,0,0,1,4.61,10.77H664.43Q665.51,595.4,670,591.56Z" transform="translate(-128.25 -545.71)"/><path class="cls-1" d="M764.33,613.87q0-10.62,4.92-14.85T784,594.79h7.22V566.94A29.67,29.67,0,0,0,775.86,571a34.84,34.84,0,0,0-11.53,11.15V567.86H738.05v85.85h26.28Z" transform="translate(-128.25 -545.71)"/><path class="cls-2" d="M399.27,681.12q-11-5.82-25.62-5.82h-10a110.83,110.83,0,0,1-24.75,53.79v39h34.74q14.52,0,25.55-5.81a41.33,41.33,0,0,0,17-16.4,51.83,51.83,0,0,0,0-48.45A41.54,41.54,0,0,0,399.27,681.12Zm-7.13,60.42q-7.14,7-19.94,7H361.5V694.61h10.7q12.81,0,19.94,7.14t7.13,20Q399.27,734.54,392.14,741.54Z" transform="translate(-128.25 -545.71)"/><path class="cls-2" d="M486.7,697.78a39.36,39.36,0,0,0-19-4.5,39.79,39.79,0,0,0-19.41,4.63,32.43,32.43,0,0,0-13.14,13.22,41.28,41.28,0,0,0-4.69,20.1,40.85,40.85,0,0,0,4.75,20.09,32.84,32.84,0,0,0,13.21,13.22,39.42,39.42,0,0,0,19.28,4.63,38.72,38.72,0,0,0,16.25-3.31,33.22,33.22,0,0,0,18.75-22.21h-24q-3.3,7.14-11.75,7.14a13.53,13.53,0,0,1-9.58-3.63q-3.88-3.64-4.42-10.51H504a58.8,58.8,0,0,0,.4-6.61,39,39,0,0,0-4.69-19.44A32.3,32.3,0,0,0,486.7,697.78ZM453,724.09a14.7,14.7,0,0,1,4.82-9.39,14.32,14.32,0,0,1,9.58-3.3,14.57,14.57,0,0,1,9.9,3.43,11.66,11.66,0,0,1,4,9.26Z" transform="translate(-128.25 -545.71)"/><rect class="cls-2" x="388.03" y="147.58" width="22.58" height="74.83"/><path class="cls-2" d="M554.58,694.64v42.8a37.1,37.1,0,0,0,3.57,16.79,25.38,25.38,0,0,0,10,10.91,29.1,29.1,0,0,0,14.92,3.77,28.46,28.46,0,0,0,13-3,24.75,24.75,0,0,0,9.31-7.86v10H628V694.34H605.43V734.4q0,7.41-3.83,11.5T591.17,750q-6.48,0-10.31-4.1T577,734.4V694.34H564.54l-10,.3Z" transform="translate(-128.25 -545.71)"/><polygon class="cls-2" points="584.29 148.63 559.85 148.63 547.97 168.99 533.84 148.63 508.48 148.63 533.44 184.72 509.14 222.4 533.57 222.4 545.46 201.91 559.59 222.4 584.95 222.4 559.59 185.78 584.29 148.63"/><path class="cls-2" d="M791.38,730a38.94,38.94,0,0,0-4.69-19.44,32.27,32.27,0,0,0-13-12.82,39.36,39.36,0,0,0-19-4.5,39.86,39.86,0,0,0-19.42,4.63,32.55,32.55,0,0,0-13.14,13.22,41.39,41.39,0,0,0-4.69,20.1,40.85,40.85,0,0,0,4.76,20.09,32.84,32.84,0,0,0,13.21,13.22,39.42,39.42,0,0,0,19.28,4.63,38.67,38.67,0,0,0,16.24-3.31,33.2,33.2,0,0,0,18.76-22.21h-24q-3.3,7.14-11.75,7.14a13.53,13.53,0,0,1-9.58-3.63q-3.9-3.64-4.42-10.51H791A58.72,58.72,0,0,0,791.38,730ZM740,724.09a14.65,14.65,0,0,1,4.82-9.39,14.29,14.29,0,0,1,9.57-3.3,14.57,14.57,0,0,1,9.91,3.43,11.65,11.65,0,0,1,4,9.26Z" transform="translate(-128.25 -545.71)"/></svg>