<svg id="Layer_1" data-name="Layer 1" xmlns="http://www.w3.org/2000/svg" viewBox="0 0 648.39 223.46"><defs><style>.cls-1{fill:#d71f27;}.cls-2{fill:#fff;}</style></defs><title>paper_deluxe_white</title><path class="cls-1" d="M365,653.71V614.94h16.29q13.23,0,22.14-4.77a31.66,31.66,0,0,0,13.21-12.54A34.75,34.75,0,0,0,421,580.48a35.81,35.81,0,0,0-4.46-18,30.69,30.69,0,0,0-13.37-12.31q-8.91-4.45-21.83-4.46H338.76v39.7A110.92,110.92,0,0,1,365,653.71Zm0-86.77h14.3q7.53,0,11.22,3.54t3.69,10q0,6.46-3.69,10T379.34,594H365Z" transform="translate(-142.99 -545.71)"/><path class="cls-1" d="M448,649.48a34.83,34.83,0,0,0,19,5.46A33,33,0,0,0,483,651.25a28.35,28.35,0,0,0,10.68-9.69v12.15H520V567.86H493.68V580a27.22,27.22,0,0,0-10.52-9.69,32.91,32.91,0,0,0-15.91-3.7A35.46,35.46,0,0,0,448,572a37.32,37.32,0,0,0-13.61,15.38q-5,10-5,23.23t5,23.31A37.72,37.72,0,0,0,448,649.48Zm13.6-54.31a18.47,18.47,0,0,1,26.59.08q5.44,5.68,5.45,15.54t-5.45,15.54a18.29,18.29,0,0,1-26.59-.08q-5.46-5.78-5.46-15.62T461.64,595.17Z" transform="translate(-142.99 -545.71)"/><path class="cls-1" d="M576,651.25a32.67,32.67,0,0,0,15.76,3.69A35.12,35.12,0,0,0,611,649.48a37.69,37.69,0,0,0,13.6-15.54,51.8,51.8,0,0,0,5-23.31q0-13.23-5-23.23A37.29,37.29,0,0,0,611,572a35.49,35.49,0,0,0-19.21-5.39,32.4,32.4,0,0,0-15.83,3.7A28.51,28.51,0,0,0,565.3,580V567.86H539l-.56,110.7h26.77l.06-10V641.71A28.84,28.84,0,0,0,576,651.25Zm-5.37-56a17.71,17.71,0,0,1,13.29-5.69,18,18,0,0,1,13.45,5.61q5.45,5.63,5.45,15.46t-5.53,15.62a18.37,18.37,0,0,1-26.66.08q-5.46-5.7-5.46-15.54T570.61,595.25Z" transform="translate(-142.99 -545.71)"/><path class="cls-1" d="M694.25,625.25q-3.84,8.31-13.68,8.31a15.7,15.7,0,0,1-11.14-4.23q-4.54-4.23-5.15-12.23h59.48a66.69,66.69,0,0,0,.46-7.7q0-12.92-5.46-22.61a37.51,37.51,0,0,0-15.14-14.93,49.74,49.74,0,0,0-44.72.16,37.75,37.75,0,0,0-15.29,15.38q-5.46,10-5.46,23.39t5.53,23.38a38.33,38.33,0,0,0,15.37,15.39,46,46,0,0,0,22.44,5.38,45.23,45.23,0,0,0,18.91-3.84,38.9,38.9,0,0,0,14.06-10.62,38.36,38.36,0,0,0,7.76-15.23ZM670,591.56a16.62,16.62,0,0,1,11.15-3.85,16.92,16.92,0,0,1,11.52,4,13.52,13.52,0,0,1,4.61,10.77H664.43Q665.51,595.4,670,591.56Z" transform="translate(-142.99 -545.71)"/><path class="cls-1" d="M764.33,613.87q0-10.62,4.92-14.85T784,594.79h7.22V566.94A29.67,29.67,0,0,0,775.86,571a34.84,34.84,0,0,0-11.53,11.15V567.86H738.05v85.85h26.28Z" transform="translate(-142.99 -545.71)"/><path class="cls-2" d="M399.27,681.12q-11-5.82-25.62-5.82h-10a110.83,110.83,0,0,1-24.75,53.79v39h34.74q14.52,0,25.55-5.81a41.33,41.33,0,0,0,17-16.4,51.83,51.83,0,0,0,0-48.45A41.54,41.54,0,0,0,399.27,681.12Zm-7.13,60.42q-7.14,7-19.94,7H361.5V694.61h10.7q12.81,0,19.94,7.14t7.13,20Q399.27,734.54,392.14,741.54Z" transform="translate(-142.99 -545.71)"/><path class="cls-2" d="M486.7,697.78a39.36,39.36,0,0,0-19-4.5,39.79,39.79,0,0,0-19.41,4.63,32.43,32.43,0,0,0-13.14,13.22,41.28,41.28,0,0,0-4.69,20.1,40.85,40.85,0,0,0,4.75,20.09,32.84,32.84,0,0,0,13.21,13.22,39.42,39.42,0,0,0,19.28,4.63,38.72,38.72,0,0,0,16.25-3.31,33.22,33.22,0,0,0,18.75-22.21h-24q-3.3,7.14-11.75,7.14a13.53,13.53,0,0,1-9.58-3.63q-3.88-3.64-4.42-10.51H504a58.8,58.8,0,0,0,.4-6.61,39,39,0,0,0-4.69-19.44A32.3,32.3,0,0,0,486.7,697.78ZM453,724.09a14.7,14.7,0,0,1,4.82-9.39,14.32,14.32,0,0,1,9.58-3.3,14.57,14.57,0,0,1,9.9,3.43,11.66,11.66,0,0,1,4,9.26Z" transform="translate(-142.99 -545.71)"/><rect class="cls-2" x="373.29" y="147.58" width="22.58" height="74.83"/><path class="cls-2" d="M554.58,694.64v42.8a37.1,37.1,0,0,0,3.57,16.79,25.38,25.38,0,0,0,10,10.91,29.1,29.1,0,0,0,14.92,3.77,28.46,28.46,0,0,0,13-3,24.75,24.75,0,0,0,9.31-7.86v10H628V694.34H605.43V734.4q0,7.41-3.83,11.5T591.17,750q-6.48,0-10.31-4.1T577,734.4V694.34H564.54l-10,.3Z" transform="translate(-142.99 -545.71)"/><polygon class="cls-2" points="569.54 148.63 545.11 148.63 533.23 168.99 519.09 148.63 493.74 148.63 518.7 184.72 494.4 222.4 518.83 222.4 530.72 201.91 544.85 222.4 570.21 222.4 544.85 185.78 569.54 148.63"/><path class="cls-2" d="M791.38,730a38.94,38.94,0,0,0-4.69-19.44,32.27,32.27,0,0,0-13-12.82,39.36,39.36,0,0,0-19-4.5,39.86,39.86,0,0,0-19.42,4.63,32.55,32.55,0,0,0-13.14,13.22,41.39,41.39,0,0,0-4.69,20.1,40.85,40.85,0,0,0,4.76,20.09,32.84,32.84,0,0,0,13.21,13.22,39.42,39.42,0,0,0,19.28,4.63,38.67,38.67,0,0,0,16.24-3.31,33.2,33.2,0,0,0,18.76-22.21h-24q-3.3,7.14-11.75,7.14a13.53,13.53,0,0,1-9.58-3.63q-3.9-3.64-4.42-10.51H791A58.72,58.72,0,0,0,791.38,730ZM740,724.09a14.65,14.65,0,0,1,4.82-9.39,14.29,14.29,0,0,1,9.57-3.3,14.57,14.57,0,0,1,9.91,3.43,11.65,11.65,0,0,1,4,9.26Z" transform="translate(-142.99 -545.71)"/><circle class="cls-2" cx="111.3" cy="112.11" r="111.3"/><path class="cls-1" d="M230.7,594.21A41.27,41.27,0,0,1,272,635.48c0,1.22-.06,2.43-.16,3.63a42.23,42.23,0,0,1,4.8-.28,41,41,0,0,1,22.31,6.55V575.65A93.8,93.8,0,0,0,189.43,726.14V635.43A41.28,41.28,0,0,1,230.7,594.21Z" transform="translate(-142.99 -545.71)"/><path class="cls-1" d="M317.88,589.43v90.72a41.27,41.27,0,0,1-82.54,0c0-1.22.06-2.44.16-3.63a42.1,42.1,0,0,1-4.8.28,41.08,41.08,0,0,1-22.31-6.55V740A93.8,93.8,0,0,0,317.88,589.43Z" transform="translate(-142.99 -545.71)"/><path class="cls-2" d="M298.92,575.65v69.73a41,41,0,0,0-22.31-6.55,42.37,42.37,0,0,0-4.8.28c.11-1.2.16-2.41.16-3.63a41.27,41.27,0,0,0-82.54-.05v90.72a94.49,94.49,0,0,0,19,13.84V670.2a41.08,41.08,0,0,0,22.31,6.55,42.1,42.1,0,0,0,4.8-.28c-.1,1.19-.16,2.41-.16,3.63a41.27,41.27,0,0,0,82.54,0V589.43A94.22,94.22,0,0,0,298.92,575.65ZM230.7,657.79A22.32,22.32,0,1,1,253,635.48,22.31,22.31,0,0,1,230.7,657.79Zm45.91,44.62a22.31,22.31,0,1,1,22.31-22.31A22.31,22.31,0,0,1,276.61,702.41Z" transform="translate(-142.99 -545.71)"/><circle class="cls-1" cx="87.71" cy="89.77" r="22.31"/><circle class="cls-1" cx="133.61" cy="134.39" r="22.31"/></svg>